<?xml version="1.0" encoding="utf-8"?>
<!-- Svg Vector Icons : http://www.onlinewebfonts.com/icon -->
<!DOCTYPE svg PUBLIC "-//W3C//DTD SVG 1.1//EN" "http://www.w3.org/Graphics/SVG/1.1/DTD/svg11.dtd">
<svg version="1.1" xmlns="http://www.w3.org/2000/svg" xmlns:xlink="http://www.w3.org/1999/xlink" x="0px" y="0px" viewBox="0 0 1000 1000" enable-background="new 0 0 1000 1000" xml:space="preserve">
<metadata> Svg Vector Icons : http://www.onlinewebfonts.com/icon </metadata>
<g><path d="M639.6,867.1c-5.2,0-10.2-1.9-14.1-5.6c-5.9-5.6-7.9-14.3-5-22l24.3-65.3c2.4-6.5,8-11.3,14.7-12.8c6.8-1.5,13.8,0.5,18.8,5.4l38.9,38.2c4.9,4.8,7,11.7,5.8,18.4c-1.3,6.7-5.8,12.3-12.1,15l-63.3,27.1C645.1,866.6,642.3,867.1,639.6,867.1z"/><path d="M702.9,840.1c-5,0-10.1-1.8-14-5.5c-8.2-7.7-8.6-20.7-0.9-28.9l149.1-158.7c7.7-8.2,20.7-8.6,28.9-0.9c8.2,7.8,8.6,20.7,0.9,28.9L717.8,833.6C713.8,837.9,708.3,840.1,702.9,840.1z"/><path d="M663.9,801.9c-4.9,0-9.7-1.7-13.6-5.2c-8.4-7.6-9.1-20.5-1.6-28.9l143-159.3c7.5-8.4,20.5-9.1,28.9-1.6c8.4,7.6,9.1,20.5,1.6,28.9l-143,159.3C675.2,799.6,669.6,801.9,663.9,801.9z"/><path d="M849.4,684c-5.3,0-10.4-2.1-14.3-5.8l-42.5-41.4c-3.9-3.8-6.1-9-6.2-14.4c-0.1-5.4,2-10.7,5.8-14.5l20.5-20.9c9.1-8.9,31.4-14.6,48.2-2.6c13.9,9.9,25.7,22.7,26.2,23.2c1.4,1.5,2.5,3.2,3.4,5c5.5,11.5,7.7,28.1-2.8,40.1c-5.6,6.4-23.6,25-23.6,25c-3.8,3.9-9,6.2-14.4,6.2C849.6,684,849.5,684,849.4,684z M835.9,621.8l13,12.7c1.3-1.3,2.5-2.6,3.6-3.8c-3.4-3.3-8.4-7.9-13.7-11.9L835.9,621.8z"/><path d="M746.1,961.1c-134.4,0-243.8-109.4-243.8-243.8c0-134.5,109.4-243.8,243.8-243.8c134.5,0,243.9,109.4,243.9,243.8C990,851.7,880.6,961.1,746.1,961.1z M746.1,514.4c-111.9,0-202.9,91-202.9,202.9c0,111.9,91,202.9,202.9,202.9c111.9,0,202.9-91,202.9-202.9C949.1,605.4,858.1,514.4,746.1,514.4z"/><path d="M932.9,438.1h-40.9V234c0-18.8-15.3-34.1-34.1-34.1h-335v-40.9h335c41.4,0,75,33.7,75,75V438.1z"/><path d="M423,829H85.4c-41.4,0-75-33.7-75-75V234c0-41.4,33.7-75,75-75h335.3v40.9H85.4c-18.8,0-34.1,15.3-34.1,34.1v520c0,18.8,15.3,34.1,34.1,34.1H423V829z"/><path d="M429.6,286.3h-40.9V113.9c0-55.4,7.4-75,28.2-75h109.5c20.8,0,28.2,19.6,28.2,75v162.4h-40.9V113.9c0-15-0.9-26.5-1.9-34h-80.4c-1,7.5-1.9,19-1.9,34V286.3z"/><path d="M912.1,298.2H30.5c-11.3,0-20.5-9.2-20.5-20.5c0-11.3,9.2-20.5,20.5-20.5h881.6c11.3,0,20.5,9.2,20.5,20.5C932.5,289.1,923.4,298.2,912.1,298.2z"/><path d="M205,594.8c0,0-80.2-126.2-8.9-196.9c0,0,61.4-54.4,116.5-10c7.9,6.4,15.7,14.8,23.1,25.7c2.6,3.8,6.2,11.7,9.8,21.5c14.6,39.2,3.5,137.6-28.3,156.4c0,0,93.9,6.1,107.1,53.9c0,0,24.5,72-55.1,63.8L126,709.1c0,0-46.1-13.6-17.1-76.7C109,632.3,123.8,598.2,205,594.8z"/><path d="M381.2,730.3c-4.3,0-8.9-0.2-13.9-0.7L126,729.5c-2,0-3.9-0.3-5.8-0.8c-2.5-0.7-24.8-8-35.7-31.9c-9.1-20.1-7.2-44.6,5.8-72.9c1.6-3.7,17.4-35.7,82.1-46.3c-21.4-45.2-51.1-134.2,9.2-194.1c2.3-2.1,38.1-33.4,83-33.4c22.2,0,42.6,7.4,60.7,22c9.8,7.9,18.9,18.1,27.2,30.1c3.6,5.3,7.7,14,12.1,25.9c11.8,31.6,10.3,103.5-10.4,148.3c33.4,7.3,78.9,24.4,89.7,63.7c1,2.9,12.5,39.1-6.7,65.9C429.4,717,413.2,730.3,381.2,730.3z M130.2,688.6l239.2,0.2c5.6,0.5,8.8,0.6,11.9,0.6c8.1,0,18.6-1.3,22.9-7.3c6.2-8.7,2.2-26.2,0.9-30.1c-7.4-26.7-63.1-38.4-89-40.1c-9-0.6-16.5-7-18.6-15.7c-2.1-8.8,1.8-17.8,9.5-22.4c19.4-11.4,32.2-97.5,19.5-131.6c-3.9-10.4-6.6-15.7-7.5-17.1c-6-8.8-12.4-15.9-19.1-21.3c-10.8-8.7-22.2-12.9-35-12.9c-29.2,0-54.9,22.1-55.1,22.3c-57.8,57.4,11.9,169.5,12.7,170.6c3.9,6.2,4.2,14,0.8,20.4c-3.4,6.5-10,10.7-17.3,11c-64.5,2.7-78.4,25.9-78.6,26.1c-7.3,16-9.4,29.3-5.7,38C123.8,684.5,127.7,687.3,130.2,688.6z"/></g>
</svg>